<svg class="diagram-root" style="background: #f5f6f6" xmlns="http://www.w3.org/2000/svg" xmlns:xlink="http://www.w3.org/1999/xlink"><style>.diagram-root { font-family: "Helvetica Neue", sans-serif; font-size: 12px; } .t { overflow: visible; } .t-bg { y: 40; fill: #fff;   } .th { fill: #005aa0;   } .tht { fill: #fff; font-size: 14px;  } .tf { fill: #323c46; overflow: visible; } .tf.pk { fill: #005aa0; font-weight: bold; } .tf.fk { font-weight: bold; } .ty { fill: #adb1b5; font-weight: normal; text-anchor: end; } .r { fill: transparent; stroke: #c3c3c3; stroke-width: 1; } .l { stroke: 1; } .i { fill: #c2c7ce; stroke: #c2c7ce; } .i.ix { fill: #afb3b6; stroke: #000; } .fa { fill: transparent; overflow: visible; } .fa .bg.hover { fill: #f7f7f7; } .c { cy: 12; r: 4; stroke: #d2d2dc; fill: #d2d2dc; } .hr { fill: transparent; stroke: #323c46; stroke-opacity: 0.035; stroke-width: 13; } .dc { stroke: #fa5a3c; fill: #fa5a3c; } .x { stroke: white; stroke-width: 1; } .hl .th { fill: #1b9bff; } .hl .tht {  } .fhl .bg { fill: #e7f4ff; } .fhls .bg {  } .r.hl { stroke: #1b9bff; } .dim { opacity: 0.25; }</style><g class="drawing-wrapper" transform="translate(-154.2633333333338, -23.334444444444358) scale(1,1)"><g class="rs"><path d="M 838.9 335.44 m -1, 0 a 1,1 0 1,0 2,0 a 1,1 0 1,0 -2,0 M 838.9 335.44 m -0.5, 0 a 0.5,0.5 0 1,0 1,0 a 0.5,0.5 0 1,0 -1,0  M838.9 335.44 L838.9 335.44 850.9 335.44 M 838.9 341.44 m -1, 0 a 1,1 0 1,0 2,0 a 1,1 0 1,0 -2,0 M 838.9 341.44 m -0.5, 0 a 0.5,0.5 0 1,0 1,0 a 0.5,0.5 0 1,0 -1,0  M838.9 341.44 L838.9 341.44 845.9 335.44 838.9 329.44 M 838.9 329.44 m -1, 0 a 1,1 0 1,0 2,0 a 1,1 0 1,0 -2,0 M 838.9 329.44 m -0.5, 0 a 0.5,0.5 0 1,0 1,0 a 0.5,0.5 0 1,0 -1,0  M850.9 335.44 Q 881.22 335.44, 911.55 353.29 T 972.19 371.13 M 984.19 371.13 m -1, 0 a 1,1 0 1,0 2,0 a 1,1 0 1,0 -2,0 M 984.19 371.13 m -0.5, 0 a 0.5,0.5 0 1,0 1,0 a 0.5,0.5 0 1,0 -1,0  M984.19 371.13 L984.19 371.13 972.19 371.13 M978.19 377.13 L978.19 377.13 978.19 365.13" id="h3711560055" class="r"></path><path d="M 993.08 192.66 m -1, 0 a 1,1 0 1,0 2,0 a 1,1 0 1,0 -2,0 M 993.08 192.66 m -0.5, 0 a 0.5,0.5 0 1,0 1,0 a 0.5,0.5 0 1,0 -1,0  M993.08 192.66 L993.08 192.66 981.08 192.66 M987.08 198.66 L987.08 198.66 987.08 186.66 M981.08 192.66 Q 948.54 192.66, 915.99 251.55 T 850.9 310.44 M 838.9 310.44 m -1, 0 a 1,1 0 1,0 2,0 a 1,1 0 1,0 -2,0 M 838.9 310.44 m -0.5, 0 a 0.5,0.5 0 1,0 1,0 a 0.5,0.5 0 1,0 -1,0  M838.9 310.44 L838.9 310.44 850.9 310.44 M844.9 316.44 L844.9 316.44 844.9 304.44" id="h1853324509" class="r"></path><path d="M 176.26 293.77 m -1, 0 a 1,1 0 1,0 2,0 a 1,1 0 1,0 -2,0 M 176.26 293.77 m -0.5, 0 a 0.5,0.5 0 1,0 1,0 a 0.5,0.5 0 1,0 -1,0  M176.26 293.77 L176.26 293.77 164.26 293.77 M 176.26 299.77 m -1, 0 a 1,1 0 1,0 2,0 a 1,1 0 1,0 -2,0 M 176.26 299.77 m -0.5, 0 a 0.5,0.5 0 1,0 1,0 a 0.5,0.5 0 1,0 -1,0  M176.26 299.77 L176.26 299.77 169.26 293.77 176.26 287.77 M 176.26 287.77 m -1, 0 a 1,1 0 1,0 2,0 a 1,1 0 1,0 -2,0 M 176.26 287.77 m -0.5, 0 a 0.5,0.5 0 1,0 1,0 a 0.5,0.5 0 1,0 -1,0  M164.26 293.77 C 114.25999999999999 293.77, 31.591999999999956 110.33, 302.04 110.33 M 314.04 110.33 m -1, 0 a 1,1 0 1,0 2,0 a 1,1 0 1,0 -2,0 M 314.04 110.33 m -0.5, 0 a 0.5,0.5 0 1,0 1,0 a 0.5,0.5 0 1,0 -1,0  M314.04 110.33 L314.04 110.33 302.04 110.33 M308.04 116.33 L308.04 116.33 308.04 104.33" id="h1536748601" class="r"></path><path d="M 343.42 318.77 m -1, 0 a 1,1 0 1,0 2,0 a 1,1 0 1,0 -2,0 M 343.42 318.77 m -0.5, 0 a 0.5,0.5 0 1,0 1,0 a 0.5,0.5 0 1,0 -1,0  M343.42 318.77 L343.42 318.77 355.42 318.77 M349.42 324.77 L349.42 324.77 349.42 312.77 M355.42 318.77 Q 431.17 318.77, 506.92 314.61 T 658.41 310.44 M 670.41 310.44 m -1, 0 a 1,1 0 1,0 2,0 a 1,1 0 1,0 -2,0 M 670.41 310.44 m -0.5, 0 a 0.5,0.5 0 1,0 1,0 a 0.5,0.5 0 1,0 -1,0  M670.41 310.44 L670.41 310.44 658.41 310.44 M664.41 316.44 L664.41 316.44 664.41 304.44" id="h2067037917" class="r"></path><path d="M 510.34 431.75 m -1, 0 a 1,1 0 1,0 2,0 a 1,1 0 1,0 -2,0 M 510.34 431.75 m -0.5, 0 a 0.5,0.5 0 1,0 1,0 a 0.5,0.5 0 1,0 -1,0  M510.34 431.75 L510.34 431.75 522.3399999999999 431.75 M516.3399999999999 437.75 L516.3399999999999 437.75 516.3399999999999 425.75 M522.3399999999999 431.75 Q 556.36 431.75, 590.38 371.1 T 658.41 310.44 M 670.41 310.44 m -1, 0 a 1,1 0 1,0 2,0 a 1,1 0 1,0 -2,0 M 670.41 310.44 m -0.5, 0 a 0.5,0.5 0 1,0 1,0 a 0.5,0.5 0 1,0 -1,0  M670.41 310.44 L670.41 310.44 658.41 310.44 M664.41 316.44 L664.41 316.44 664.41 304.44" id="h3454280967" class="r"></path><path d="M 510.34 456.75 m -1, 0 a 1,1 0 1,0 2,0 a 1,1 0 1,0 -2,0 M 510.34 456.75 m -0.5, 0 a 0.5,0.5 0 1,0 1,0 a 0.5,0.5 0 1,0 -1,0  M510.34 456.75 L510.34 456.75 522.3399999999999 456.75 M 510.34 462.75 m -1, 0 a 1,1 0 1,0 2,0 a 1,1 0 1,0 -2,0 M 510.34 462.75 m -0.5, 0 a 0.5,0.5 0 1,0 1,0 a 0.5,0.5 0 1,0 -1,0  M510.34 462.75 L510.34 462.75 517.3399999999999 456.75 510.34 450.75 M 510.34 450.75 m -1, 0 a 1,1 0 1,0 2,0 a 1,1 0 1,0 -2,0 M 510.34 450.75 m -0.5, 0 a 0.5,0.5 0 1,0 1,0 a 0.5,0.5 0 1,0 -1,0  M522.3399999999999 456.75 C 572.3399999999999 456.75, 577.0199999999999 110.33, 514.54 110.33 M 502.54 110.33 m -1, 0 a 1,1 0 1,0 2,0 a 1,1 0 1,0 -2,0 M 502.54 110.33 m -0.5, 0 a 0.5,0.5 0 1,0 1,0 a 0.5,0.5 0 1,0 -1,0  M502.54 110.33 L502.54 110.33 514.54 110.33 M508.54 116.33 L508.54 116.33 508.54 104.33" id="h486737031" class="r"></path></g><g class="hrs"></g><g class="ts"><svg width="188.5" height="100" x="314.04" y="53.33" id="h2737659281" class="t"><rect height="40" width="188.5" class="th"></rect><text x="13" y="25" class="tht">DEPARTMENTS</text><rect height="60" width="188.5" class="t-bg"></rect><text x="13" y="61" class="tf pk">dept_no<tspan x="175.5" class="ty">VARCHAR(20)</tspan></text><path d="M7,14A2,2 0 0,1 5,12A2,2 0 0,1 7,10A2,2 0 0,1 9,12A2,2 0 0,1 7,14M12.65,10C11.83,7.67 9.61,6 7, 6A6, 6 0 0, 0 1, 12A6, 6 0 0, 0 7, 18C9.61, 18 11.83, 16.33 12.65, 14H17V18H21V14H23V10H12.65Z" class="i pk" transform="translate(76.375, 48) scale(0.65)"></path><text x="13" y="86" class="tf">dept_name<tspan x="175.5" class="ty">VARCHAR</tspan></text></svg><svg width="179.81" height="100" x="984.19" y="314.13" id="h3379882070" class="t"><rect height="40" width="179.81" class="th"></rect><text x="13" y="25" class="tht">TITLES</text><rect height="60" width="179.81" class="t-bg"></rect><text x="13" y="61" class="tf pk">title_id<tspan x="166.81" class="ty">VARCHAR(20)</tspan></text><path d="M7,14A2,2 0 0,1 5,12A2,2 0 0,1 7,10A2,2 0 0,1 9,12A2,2 0 0,1 7,14M12.65,10C11.83,7.67 9.61,6 7, 6A6, 6 0 0, 0 1, 12A6, 6 0 0, 0 7, 18C9.61, 18 11.83, 16.33 12.65, 14H17V18H21V14H23V10H12.65Z" class="i pk" transform="translate(67.685, 48) scale(0.65)"></path><text x="13" y="86" class="tf">title<tspan x="166.81" class="ty">VARCHAR</tspan></text></svg><svg width="168.49" height="225" x="670.41" y="253.44" id="h3412646542" class="t"><rect height="40" width="168.49" class="th"></rect><text x="13" y="25" class="tht">EMPLOYEES</text><rect height="185" width="168.49" class="t-bg"></rect><text x="13" y="61" class="tf pk">emp_no<tspan x="155.49" class="ty">INT</tspan></text><path d="M7,14A2,2 0 0,1 5,12A2,2 0 0,1 7,10A2,2 0 0,1 9,12A2,2 0 0,1 7,14M12.65,10C11.83,7.67 9.61,6 7, 6A6, 6 0 0, 0 1, 12A6, 6 0 0, 0 7, 18C9.61, 18 11.83, 16.33 12.65, 14H17V18H21V14H23V10H12.65Z" class="i pk" transform="translate(116.15992187500001, 48) scale(0.65)"></path><text x="13" y="86" class="tf fk">emp_title_id<tspan x="155.49" class="ty">VARCHAR</tspan></text><text x="13" y="111" class="tf">birth_date<tspan x="155.49" class="ty">DATE</tspan></text><text x="13" y="136" class="tf">first_name<tspan x="155.49" class="ty">VARCHAR</tspan></text><text x="13" y="161" class="tf">last_name<tspan x="155.49" class="ty">VARCHAR</tspan></text><text x="13" y="186" class="tf">sex<tspan x="155.49" class="ty">VARCHAR</tspan></text><text x="13" y="211" class="tf">hire_date<tspan x="155.49" class="ty">DATE</tspan></text></svg><svg width="135.79" height="100" x="993.08" y="135.66" id="h4042341999" class="t"><rect height="40" width="135.79" class="th"></rect><text x="13" y="25" class="tht">SALARIES</text><rect height="60" width="135.79" class="t-bg"></rect><text x="13" y="61" class="tf pk">emp_no<tspan x="122.78999999999999" class="ty">INT</tspan></text><path d="M7,14A2,2 0 0,1 5,12A2,2 0 0,1 7,10A2,2 0 0,1 9,12A2,2 0 0,1 7,14M12.65,10C11.83,7.67 9.61,6 7, 6A6, 6 0 0, 0 1, 12A6, 6 0 0, 0 7, 18C9.61, 18 11.83, 16.33 12.65, 14H17V18H21V14H23V10H12.65Z" class="i pk" transform="translate(83.45992187499999, 48) scale(0.65)"></path><text x="13" y="86" class="tf pk">salary<tspan x="122.78999999999999" class="ty">FLOAT</tspan></text><path d="M7,14A2,2 0 0,1 5,12A2,2 0 0,1 7,10A2,2 0 0,1 9,12A2,2 0 0,1 7,14M12.65,10C11.83,7.67 9.61,6 7, 6A6, 6 0 0, 0 1, 12A6, 6 0 0, 0 7, 18C9.61, 18 11.83, 16.33 12.65, 14H17V18H21V14H23V10H12.65Z" class="i pk" transform="translate(65.00874999999999, 73) scale(0.65)"></path></svg><svg width="167.16" height="100" x="176.26" y="236.77" id="h991819583" class="t"><rect height="40" width="167.16" class="th"></rect><text x="13" y="25" class="tht">DEPT_MANAGER</text><rect height="60" width="167.16" class="t-bg"></rect><text x="13" y="61" class="tf pk">dept_no<tspan x="154.16" class="ty">VARCHAR</tspan></text><path d="M7,14A2,2 0 0,1 5,12A2,2 0 0,1 7,10A2,2 0 0,1 9,12A2,2 0 0,1 7,14M12.65,10C11.83,7.67 9.61,6 7, 6A6, 6 0 0, 0 1, 12A6, 6 0 0, 0 7, 18C9.61, 18 11.83, 16.33 12.65, 14H17V18H21V14H23V10H12.65Z" class="i pk" transform="translate(76.37484375, 48) scale(0.65)"></path><text x="13" y="86" class="tf pk">emp_no<tspan x="154.16" class="ty">INT</tspan></text><path d="M7,14A2,2 0 0,1 5,12A2,2 0 0,1 7,10A2,2 0 0,1 9,12A2,2 0 0,1 7,14M12.65,10C11.83,7.67 9.61,6 7, 6A6, 6 0 0, 0 1, 12A6, 6 0 0, 0 7, 18C9.61, 18 11.83, 16.33 12.65, 14H17V18H21V14H23V10H12.65Z" class="i pk" transform="translate(114.829921875, 73) scale(0.65)"></path></svg><svg width="167.16" height="100" x="343.18" y="374.75" id="h663659370" class="t"><rect height="40" width="167.16" class="th"></rect><text x="13" y="25" class="tht">DEPT_EMP</text><rect height="60" width="167.16" class="t-bg"></rect><text x="13" y="61" class="tf pk">emp_no<tspan x="154.16" class="ty">INT</tspan></text><path d="M7,14A2,2 0 0,1 5,12A2,2 0 0,1 7,10A2,2 0 0,1 9,12A2,2 0 0,1 7,14M12.65,10C11.83,7.67 9.61,6 7, 6A6, 6 0 0, 0 1, 12A6, 6 0 0, 0 7, 18C9.61, 18 11.83, 16.33 12.65, 14H17V18H21V14H23V10H12.65Z" class="i pk" transform="translate(114.829921875, 48) scale(0.65)"></path><text x="13" y="86" class="tf pk">dept_no<tspan x="154.16" class="ty">VARCHAR</tspan></text><path d="M7,14A2,2 0 0,1 5,12A2,2 0 0,1 7,10A2,2 0 0,1 9,12A2,2 0 0,1 7,14M12.65,10C11.83,7.67 9.61,6 7, 6A6, 6 0 0, 0 1, 12A6, 6 0 0, 0 7, 18C9.61, 18 11.83, 16.33 12.65, 14H17V18H21V14H23V10H12.65Z" class="i pk" transform="translate(76.37484375, 73) scale(0.65)"></path></svg></g></g><text class="qdbd-link" x="10" y="20">www.quickdatabasediagrams.com</text></svg>